<?xml version="1.0" encoding="utf-8"?>

<!DOCTYPE svg PUBLIC "-//W3C//DTD SVG 1.1//EN" "http://www.w3.org/Graphics/SVG/1.1/DTD/svg11.dtd">
<!-- Uploaded to: SVG Repo, www.svgrepo.com, Generator: SVG Repo Mixer Tools -->
<svg height="800px" width="800px" version="1.1" id="_x32_" xmlns="http://www.w3.org/2000/svg" xmlns:xlink="http://www.w3.org/1999/xlink" 
	 viewBox="0 0 512 512"  xml:space="preserve">
<style type="text/css">
	.st0{fill:#000000;}
</style>
<g>
	<path class="st0" d="M302.206,406.028h-214c-13.125,0-23.773,8.471-23.773,18.928v0.552c0,10.472,10.644,18.944,23.773,18.944h214
		c13.128,0,23.778-8.471,23.778-18.944v-0.552C325.983,414.499,315.342,406.028,302.206,406.028z"/>
	<path class="st0" d="M57.23,380.53c0.701,0.23,1.319,0.536,1.978,0.973c1.15,0.759,2.434,1.971,3.918,3.665
		c1.108,1.25,2.319,2.752,3.73,4.362c2.12,2.408,4.718,5.144,8.372,7.368c1.82,1.104,3.906,2.047,6.183,2.691
		c2.28,0.644,4.76,0.981,7.348,0.981c3.001,0.008,5.849-0.452,8.429-1.311c2.258-0.752,4.282-1.786,6.046-2.96
		c3.089-2.062,5.378-4.454,7.283-6.601c1.422-1.625,2.641-3.128,3.768-4.4c1.678-1.924,3.089-3.251,4.362-4.01
		c0.652-0.383,1.258-0.667,1.986-0.874c0.724-0.192,1.568-0.338,2.71-0.338c1.322,0,2.246,0.185,3.051,0.453
		c0.698,0.23,1.319,0.536,1.982,0.973c1.15,0.759,2.434,1.971,3.909,3.665c1.112,1.25,2.323,2.752,3.738,4.362
		c2.12,2.408,4.715,5.144,8.372,7.368c1.821,1.112,3.899,2.047,6.187,2.691c2.284,0.644,4.757,0.981,7.344,0.981
		c3.002,0.008,5.857-0.452,8.426-1.311c2.262-0.752,4.286-1.786,6.049-2.96c3.093-2.062,5.374-4.454,7.276-6.601
		c1.438-1.625,2.652-3.128,3.775-4.4c1.676-1.924,3.094-3.251,4.37-4.01c0.64-0.383,1.253-0.667,1.982-0.874
		c0.721-0.192,1.572-0.338,2.706-0.338c1.323,0,2.25,0.185,3.048,0.453c0.702,0.23,1.323,0.536,1.985,0.973
		c1.15,0.759,2.434,1.971,3.91,3.665c1.119,1.25,2.327,2.752,3.738,4.362c2.12,2.408,4.714,5.144,8.375,7.368
		c1.821,1.112,3.894,2.047,6.183,2.691c2.289,0.644,4.757,0.981,7.345,0.981c3.005,0.008,5.853-0.452,8.433-1.311
		c2.254-0.752,4.282-1.786,6.045-2.96c3.09-2.062,5.382-4.454,7.28-6.601c1.426-1.625,2.652-3.128,3.764-4.4
		c1.678-1.924,3.097-3.251,4.382-4.01c0.632-0.383,1.253-0.667,1.973-0.874c0.721-0.192,1.572-0.338,2.711-0.338
		c1.322,0,2.246,0.185,3.051,0.453c0.706,0.23,1.323,0.536,1.982,0.973c1.153,0.759,2.434,1.971,3.921,3.665
		c1.112,1.25,2.319,2.759,3.738,4.362c2.108,2.408,4.714,5.144,8.368,7.368c1.82,1.112,3.902,2.047,6.19,2.691
		c2.281,0.644,4.757,0.989,7.341,0.989c3.005,0,5.861-0.46,8.429-1.319c2.254-0.752,4.286-1.786,6.048-2.96
		c3.094-2.062,5.382-4.454,7.284-6.601c1.418-1.625,2.645-3.128,3.764-4.4c1.678-1.924,3.097-3.251,4.374-4.01
		c0.64-0.383,1.254-0.667,1.981-0.866c0.729-0.2,1.572-0.346,2.714-0.346c4.708,0,8.533-3.825,8.533-8.54
		c0-4.714-3.825-8.54-8.533-8.54c-3.009,0-5.856,0.46-8.437,1.318c-2.258,0.744-4.289,1.787-6.045,2.952
		c-3.089,2.062-5.378,4.446-7.283,6.608c-1.422,1.618-2.649,3.128-3.768,4.393c-1.672,1.924-3.097,3.25-4.37,4.017
		c-0.652,0.383-1.258,0.66-1.978,0.866c-0.728,0.207-1.58,0.338-2.714,0.338c-1.319,0-2.25-0.177-3.055-0.437
		c-0.697-0.23-1.314-0.552-1.982-0.988c-1.15-0.751-2.438-1.978-3.913-3.665c-1.112-1.25-2.327-2.744-3.73-4.37
		c-2.123-2.392-4.715-5.137-8.376-7.352c-1.828-1.112-3.902-2.047-6.191-2.706c-2.288-0.637-4.757-0.974-7.344-0.974
		c-3.006,0-5.853,0.452-8.434,1.318c-2.254,0.744-4.286,1.787-6.045,2.952c-3.089,2.062-5.378,4.446-7.279,6.608
		c-1.434,1.618-2.653,3.128-3.772,4.393c-1.679,1.924-3.09,3.25-4.374,4.017c-0.644,0.383-1.254,0.66-1.974,0.866
		c-0.721,0.207-1.572,0.338-2.71,0.338c-1.323,0-2.254-0.177-3.051-0.437c-0.701-0.23-1.322-0.552-1.986-0.988
		c-1.146-0.751-2.43-1.978-3.91-3.665c-1.112-1.25-2.319-2.744-3.73-4.354c-2.124-2.408-4.714-5.152-8.375-7.368
		c-1.829-1.112-3.898-2.047-6.191-2.706c-2.28-0.637-4.761-0.981-7.341-0.974c-3.001-0.008-5.857,0.452-8.433,1.318
		c-2.254,0.744-4.286,1.779-6.049,2.952c-3.09,2.062-5.378,4.446-7.28,6.608c-1.426,1.618-2.641,3.128-3.764,4.393
		c-1.675,1.924-3.098,3.25-4.374,4.017c-0.64,0.383-1.253,0.66-1.974,0.866c-0.736,0.199-1.579,0.338-2.71,0.338
		c-1.322,0-2.254-0.177-3.059-0.437c-0.698-0.23-1.319-0.552-1.974-0.988c-1.157-0.751-2.434-1.978-3.921-3.665
		c-1.112-1.258-2.315-2.752-3.734-4.354c-2.112-2.408-4.711-5.152-8.368-7.368c-1.82-1.112-3.91-2.047-6.187-2.706
		c-2.281-0.637-4.753-0.981-7.34-0.974c-3.009-0.008-5.853,0.452-8.441,1.318c-2.254,0.744-4.27,1.779-6.034,2.952
		c-3.093,2.062-5.382,4.446-7.283,6.608c-1.43,1.61-2.645,3.128-3.764,4.393c-1.679,1.924-3.105,3.25-4.37,4.017
		c-0.652,0.383-1.265,0.66-1.986,0.866c-0.721,0.199-1.572,0.33-2.706,0.338c-1.323-0.008-2.25-0.177-3.055-0.437
		c-0.697-0.23-1.314-0.552-1.982-0.988c-1.142-0.751-2.434-1.97-3.906-3.665c-1.115-1.258-2.323-2.752-3.733-4.362
		c-2.12-2.4-4.719-5.136-8.372-7.368c-1.82-1.104-3.902-2.039-6.186-2.698c-2.286-0.637-4.758-0.981-7.349-0.974
		c-4.715,0-8.537,3.826-8.537,8.54c0,4.715,3.822,8.54,8.537,8.54C55.501,380.076,56.428,380.261,57.23,380.53z"/>
	<path class="st0" d="M391.466,125.069l15.156-69.74l54.884-31.87L447.89,0l-65.234,37.872l-18.956,87.197H193.117l1.038,13.562
		l7.961,103.442c-2.997-0.146-6.018-0.222-9.058-0.222c-71.24,0-129.888,40.74-137.482,86.163c-0.272,1.641-0.483,2.07-0.64,2.53
		c-0.134,0.444-0.211,0.89-0.211,2.56c0,9.729,5.421,14.858,14.823,14.858h247.019c9.388,0,14.819-5.129,14.819-14.858
		c0-3.319-0.295-1.824-0.858-5.09c-3.791-22.754-20.416-44.335-45.002-60.22c-7.984-5.159-16.801-9.683-26.292-13.485
		c-9.882-3.94-20.485-7.069-31.64-9.199l-7.283-94.864h218.849l-24.1,313.862h-86.469c-3.021-3.702-7.459-5.903-13.673-5.903
		h-70.953h-25.265H71.251c-14.14,0-19.081,11.484-19.081,25.621v2.568C52.17,500.531,63.639,512,77.784,512h230.547
		c13.156,0,24.019-9.92,25.456-22.708h104.604l27.971-364.223H391.466z M117.361,294.428c-3.757,0-6.816-3.059-6.816-6.83
		c0-3.78,3.058-6.846,6.816-6.846c3.783,0,6.842,3.066,6.842,6.846C124.203,291.369,121.145,294.428,117.361,294.428z
		 M144.7,273.928c-3.78,0-6.839-3.059-6.839-6.832c0-3.779,3.059-6.846,6.839-6.846c3.775,0,6.838,3.066,6.838,6.846
		C151.538,270.869,148.475,273.928,144.7,273.928z M168.603,294.428c-3.776,0-6.838-3.059-6.838-6.83
		c0-3.78,3.062-6.846,6.838-6.846c3.783,0,6.842,3.066,6.842,6.846C175.446,291.369,172.387,294.428,168.603,294.428z
		 M189.103,265.388c-3.775,0-6.842-3.06-6.842-6.832c0-3.763,3.067-6.823,6.842-6.823c3.776,0,6.842,3.06,6.842,6.823
		C195.945,262.328,192.879,265.388,189.103,265.388z M271.072,282.461c3.784,0,6.842,3.059,6.842,6.838
		c0,3.772-3.059,6.839-6.842,6.839c-3.756,0-6.815-3.067-6.815-6.839C264.257,285.52,267.316,282.461,271.072,282.461z
		 M236.915,260.174c3.783,0,6.842,3.059,6.842,6.823c0,3.795-3.058,6.854-6.842,6.854c-3.772,0-6.816-3.059-6.816-6.854
		C230.099,263.234,233.143,260.174,236.915,260.174z M221.555,289.299c0,3.772-3.062,6.839-6.842,6.839
		c-3.756,0-6.815-3.067-6.815-6.839c0-3.78,3.058-6.838,6.815-6.838C218.493,282.461,221.555,285.52,221.555,289.299z"/>
</g>
</svg>