<svg width="150" height="150" viewBox="0 0 150 150" fill="none" xmlns="http://www.w3.org/2000/svg">
<rect width="150" height="150" rx="15" fill="#EFEFEF"/>
<path d="M49.7216 58.9091C49.3381 55.6705 47.7827 53.1562 45.0554 51.3665C42.3281 49.5767 38.983 48.6818 35.0199 48.6818C32.1222 48.6818 29.5866 49.1506 27.4134 50.0881C25.2614 51.0256 23.5781 52.3146 22.3636 53.9553C21.1705 55.5959 20.5739 57.4602 20.5739 59.5483C20.5739 61.2955 20.9893 62.7976 21.8203 64.0547C22.6726 65.2905 23.7592 66.3239 25.0803 67.1548C26.4013 67.9645 27.7862 68.6357 29.2351 69.1683C30.6839 69.6797 32.0156 70.0952 33.2301 70.4148L39.8778 72.2045C41.5824 72.652 43.4787 73.2699 45.5668 74.0582C47.6761 74.8466 49.6896 75.9226 51.6072 77.2862C53.5462 78.6285 55.1442 80.3544 56.4013 82.4638C57.6584 84.5732 58.2869 87.1619 58.2869 90.2301C58.2869 93.767 57.3601 96.9631 55.5064 99.8182C53.674 102.673 50.9893 104.942 47.4524 106.626C43.9368 108.309 39.6648 109.151 34.6364 109.151C29.9489 109.151 25.8899 108.394 22.4595 106.881C19.0504 105.369 16.3658 103.259 14.4055 100.553C12.4666 97.8473 11.3693 94.7045 11.1136 91.125H19.2955C19.5085 93.5966 20.3395 95.642 21.7884 97.2614C23.2585 98.8594 25.1122 100.053 27.3494 100.841C29.608 101.608 32.0369 101.991 34.6364 101.991C37.6619 101.991 40.3786 101.501 42.7862 100.521C45.1939 99.5199 47.1009 98.1349 48.5071 96.3665C49.9134 94.5767 50.6165 92.4886 50.6165 90.1023C50.6165 87.929 50.0092 86.1605 48.7947 84.7969C47.5803 83.4332 45.9822 82.3253 44.0007 81.473C42.0192 80.6207 39.8778 79.875 37.5767 79.2358L29.5227 76.9347C24.4091 75.4645 20.3608 73.3658 17.3778 70.6385C14.3949 67.9112 12.9034 64.3423 12.9034 59.9318C12.9034 56.267 13.8942 53.071 15.8757 50.3438C17.8786 47.5952 20.5632 45.4645 23.9297 43.9517C27.3175 42.4176 31.0994 41.6506 35.2756 41.6506C39.4943 41.6506 43.2443 42.407 46.5256 43.9197C49.8068 45.4112 52.4063 47.4567 54.3239 50.0561C56.2628 52.6555 57.2855 55.6065 57.392 58.9091H49.7216Z" fill="#BCDE36"/>
<path d="M49.7216 58.9091C49.3381 55.6705 47.7827 53.1562 45.0554 51.3665C42.3281 49.5767 38.983 48.6818 35.0199 48.6818C32.1222 48.6818 29.5866 49.1506 27.4134 50.0881C25.2614 51.0256 23.5781 52.3146 22.3636 53.9553C21.1705 55.5959 20.5739 57.4602 20.5739 59.5483C20.5739 61.2955 20.9893 62.7976 21.8203 64.0547C22.6726 65.2905 23.7592 66.3239 25.0803 67.1548C26.4013 67.9645 27.7862 68.6357 29.2351 69.1683C30.6839 69.6797 32.0156 70.0952 33.2301 70.4148L39.8778 72.2045C41.5824 72.652 43.4787 73.2699 45.5668 74.0582C47.6761 74.8466 49.6896 75.9226 51.6072 77.2862C53.5462 78.6285 55.1442 80.3544 56.4013 82.4638C57.6584 84.5732 58.2869 87.1619 58.2869 90.2301C58.2869 93.767 57.3601 96.9631 55.5064 99.8182C53.674 102.673 50.9893 104.942 47.4524 106.626C43.9368 108.309 39.6648 109.151 34.6364 109.151C29.9489 109.151 25.8899 108.394 22.4595 106.881C19.0504 105.369 16.3658 103.259 14.4055 100.553C12.4666 97.8473 11.3693 94.7045 11.1136 91.125H19.2955C19.5085 93.5966 20.3395 95.642 21.7884 97.2614C23.2585 98.8594 25.1122 100.053 27.3494 100.841C29.608 101.608 32.0369 101.991 34.6364 101.991C37.6619 101.991 40.3786 101.501 42.7862 100.521C45.1939 99.5199 47.1009 98.1349 48.5071 96.3665C49.9134 94.5767 50.6165 92.4886 50.6165 90.1023C50.6165 87.929 50.0092 86.1605 48.7947 84.7969C47.5803 83.4332 45.9822 82.3253 44.0007 81.473C42.0192 80.6207 39.8778 79.875 37.5767 79.2358L29.5227 76.9347C24.4091 75.4645 20.3608 73.3658 17.3778 70.6385C14.3949 67.9112 12.9034 64.3423 12.9034 59.9318C12.9034 56.267 13.8942 53.071 15.8757 50.3438C17.8786 47.5952 20.5632 45.4645 23.9297 43.9517C27.3175 42.4176 31.0994 41.6506 35.2756 41.6506C39.4943 41.6506 43.2443 42.407 46.5256 43.9197C49.8068 45.4112 52.4063 47.4567 54.3239 50.0561C56.2628 52.6555 57.2855 55.6065 57.392 58.9091H49.7216Z" fill="#BCDE36"/>
<path d="M71.3187 42.5455H80.7789L103.023 96.8778H103.79L126.035 42.5455H135.495V108H128.08V58.2699H127.441L106.986 108H99.8272L79.3727 58.2699H78.7335V108H71.3187V42.5455Z" fill="#BCDE36"/>
<path d="M71.3187 42.5455H80.7789L103.023 96.8778H103.79L126.035 42.5455H135.495V108H128.08V58.2699H127.441L106.986 108H99.8272L79.3727 58.2699H78.7335V108H71.3187V42.5455Z" fill="black"/>
</svg>
