<?xml version="1.0" encoding="UTF-8"?>
<!-- Uploaded to: SVG Repo, www.svgrepo.com, Generator: SVG Repo Mixer Tools -->
<svg width="800px" height="800px" viewBox="0 0 24 24" version="1.1" xmlns="http://www.w3.org/2000/svg" xmlns:xlink="http://www.w3.org/1999/xlink">
    <title>Settings</title>
    <g id="Page-1" stroke="none" stroke-width="1" fill="none" fill-rule="evenodd">
        <g id="Settings">
            <rect id="Rectangle" fill-rule="nonzero" x="0" y="0" width="24" height="24">

</rect>
            <circle id="Oval" stroke="#0C0310" stroke-width="2" stroke-linecap="round" cx="12" cy="12" r="3">

</circle>
            <path d="M10.069,3.36281 C10.7151,1.54573 13.2849,1.54573 13.931,3.3628 C14.338,4.5071 15.6451,5.04852 16.742,4.52713 C18.4837,3.69918 20.3008,5.51625 19.4729,7.25803 C18.9515,8.35491 19.4929,9.66203 20.6372,10.069 C22.4543,10.7151 22.4543,13.2849 20.6372,13.931 C19.4929,14.338 18.9515,15.6451 19.4729,16.742 C20.3008,18.4837 18.4837,20.3008 16.742,19.4729 C15.6451,18.9515 14.338,19.4929 13.931,20.6372 C13.2849,22.4543 10.7151,22.4543 10.069,20.6372 C9.66203,19.4929 8.35491,18.9515 7.25803,19.4729 C5.51625,20.3008 3.69918,18.4837 4.52713,16.742 C5.04852,15.6451 4.5071,14.338 3.3628,13.931 C1.54573,13.2849 1.54573,10.7151 3.36281,10.069 C4.5071,9.66203 5.04852,8.35491 4.52713,7.25803 C3.69918,5.51625 5.51625,3.69918 7.25803,4.52713 C8.35491,5.04852 9.66203,4.5071 10.069,3.36281 Z" id="Path" stroke="#0C0310" stroke-width="2" stroke-linecap="round">

</path>
        </g>
    </g>
</svg>